<mxfile host="Electron" modified="2024-05-07T10:38:38.798Z" agent="Mozilla/5.0 (Windows NT 10.0; Win64; x64) AppleWebKit/537.36 (KHTML, like Gecko) draw.io/24.2.5 Chrome/120.0.6099.109 Electron/28.1.0 Safari/537.36" etag="7NjXRrSj70W6tX2vOm7n" version="24.2.5" type="device">
  <diagram id="1dObsekP2oLUSiPd6wXr" name="Pagina-1">
    <mxGraphModel dx="1050" dy="621" grid="1" gridSize="10" guides="1" tooltips="1" connect="1" arrows="1" fold="1" page="1" pageScale="1" pageWidth="827" pageHeight="1169" math="0" shadow="0">
      <root>
        <mxCell id="0" />
        <mxCell id="1" parent="0" />
        <mxCell id="8b9FtcVvKpMjhSRr-vLO-15" value="&lt;font style=&quot;font-size: 9px;&quot;&gt;Descrizione&lt;/font&gt;" style="text;html=1;align=center;verticalAlign=middle;whiteSpace=wrap;rounded=0;" parent="1" vertex="1">
          <mxGeometry x="243.81000000000006" y="63.31" width="35" height="15" as="geometry" />
        </mxCell>
        <mxCell id="8b9FtcVvKpMjhSRr-vLO-16" value="&lt;font style=&quot;font-size: 9px;&quot;&gt;Nome&lt;/font&gt;" style="text;html=1;align=center;verticalAlign=middle;whiteSpace=wrap;rounded=0;" parent="1" vertex="1">
          <mxGeometry x="188.68" y="63.31" width="35" height="17" as="geometry" />
        </mxCell>
        <mxCell id="8b9FtcVvKpMjhSRr-vLO-78" value="Collezione" style="whiteSpace=wrap;html=1;align=center;" parent="1" vertex="1">
          <mxGeometry x="195.0600000000001" y="96.94" width="90" height="28.75" as="geometry" />
        </mxCell>
        <mxCell id="8b9FtcVvKpMjhSRr-vLO-79" style="edgeStyle=orthogonalEdgeStyle;rounded=0;orthogonalLoop=1;jettySize=auto;html=1;exitX=0.75;exitY=0;exitDx=0;exitDy=0;endArrow=oval;endFill=1;" parent="1" edge="1">
          <mxGeometry relative="1" as="geometry">
            <mxPoint x="207.69000000000008" y="96.93" as="sourcePoint" />
            <mxPoint x="205.69000000000008" y="80.93" as="targetPoint" />
          </mxGeometry>
        </mxCell>
        <mxCell id="8b9FtcVvKpMjhSRr-vLO-80" style="edgeStyle=orthogonalEdgeStyle;rounded=0;orthogonalLoop=1;jettySize=auto;html=1;exitX=0.75;exitY=0;exitDx=0;exitDy=0;endArrow=oval;endFill=0;" parent="1" edge="1">
          <mxGeometry relative="1" as="geometry">
            <mxPoint x="257.69000000000005" y="96.94" as="sourcePoint" />
            <mxPoint x="255.69000000000005" y="80.94" as="targetPoint" />
          </mxGeometry>
        </mxCell>
        <mxCell id="8b9FtcVvKpMjhSRr-vLO-89" value="&lt;font style=&quot;font-size: 9px;&quot;&gt;Nome&lt;/font&gt;" style="text;html=1;align=center;verticalAlign=middle;whiteSpace=wrap;rounded=0;" parent="1" vertex="1">
          <mxGeometry x="552.9999999999999" y="61.81101167315171" width="40" height="22" as="geometry" />
        </mxCell>
        <mxCell id="8b9FtcVvKpMjhSRr-vLO-90" value="&lt;font style=&quot;font-size: 9px;&quot;&gt;Provenienza&lt;/font&gt;" style="text;html=1;align=center;verticalAlign=middle;whiteSpace=wrap;rounded=0;" parent="1" vertex="1">
          <mxGeometry x="613.0000000000001" y="66.50101167315174" width="40" height="17.314202334630348" as="geometry" />
        </mxCell>
        <mxCell id="8b9FtcVvKpMjhSRr-vLO-91" value="&lt;font style=&quot;font-size: 9px;&quot;&gt;Datazione&lt;/font&gt;" style="text;html=1;align=center;verticalAlign=middle;whiteSpace=wrap;rounded=0;" parent="1" vertex="1">
          <mxGeometry x="659.38" y="93.18000000000012" width="35" height="18" as="geometry" />
        </mxCell>
        <mxCell id="8b9FtcVvKpMjhSRr-vLO-92" value="&lt;p style=&quot;line-height: 77%;&quot;&gt;&lt;font style=&quot;font-size: 9px;&quot;&gt;Significato Storico&lt;/font&gt;&lt;/p&gt;" style="text;html=1;align=center;verticalAlign=middle;whiteSpace=wrap;rounded=0;spacing=2;spacingTop=0;" parent="1" vertex="1">
          <mxGeometry x="542.26" y="152.27961089494164" width="55" height="17.314202334630348" as="geometry" />
        </mxCell>
        <mxCell id="8b9FtcVvKpMjhSRr-vLO-94" style="edgeStyle=orthogonalEdgeStyle;rounded=0;orthogonalLoop=1;jettySize=auto;html=1;exitX=0.75;exitY=1;exitDx=0;exitDy=0;entryX=0.578;entryY=0.124;entryDx=0;entryDy=0;entryPerimeter=0;endArrow=oval;endFill=0;" parent="1" source="8b9FtcVvKpMjhSRr-vLO-87" edge="1">
          <mxGeometry relative="1" as="geometry">
            <mxPoint x="626.8799999999999" y="147.74884824902728" as="targetPoint" />
          </mxGeometry>
        </mxCell>
        <mxCell id="8b9FtcVvKpMjhSRr-vLO-102" style="edgeStyle=orthogonalEdgeStyle;rounded=0;orthogonalLoop=1;jettySize=auto;html=1;exitX=1;exitY=0.5;exitDx=0;exitDy=0;endArrow=oval;endFill=0;" parent="1" edge="1">
          <mxGeometry relative="1" as="geometry">
            <mxPoint x="285.06" y="111.19999999999999" as="sourcePoint" />
            <mxPoint x="308.18" y="111.19999999999999" as="targetPoint" />
          </mxGeometry>
        </mxCell>
        <mxCell id="8b9FtcVvKpMjhSRr-vLO-103" value="&lt;font style=&quot;font-size: 9px;&quot;&gt;RaritÃ &lt;/font&gt;" style="text;html=1;align=center;verticalAlign=middle;whiteSpace=wrap;rounded=0;" parent="1" vertex="1">
          <mxGeometry x="607.26" y="146.18188715953312" width="40" height="17.314202334630348" as="geometry" />
        </mxCell>
        <mxCell id="8b9FtcVvKpMjhSRr-vLO-104" style="edgeStyle=orthogonalEdgeStyle;rounded=0;orthogonalLoop=1;jettySize=auto;html=1;exitX=0.75;exitY=1;exitDx=0;exitDy=0;entryX=0.578;entryY=0.124;entryDx=0;entryDy=0;entryPerimeter=0;endArrow=oval;endFill=0;" parent="1" edge="1">
          <mxGeometry relative="1" as="geometry">
            <mxPoint x="569.6500000000001" y="136.94" as="sourcePoint" />
            <mxPoint x="569.77" y="147.40884824902724" as="targetPoint" />
          </mxGeometry>
        </mxCell>
        <mxCell id="8b9FtcVvKpMjhSRr-vLO-110" value="&lt;font style=&quot;font-size: 8px;&quot;&gt;Numero&lt;/font&gt;&lt;div style=&quot;line-height: 40%;&quot;&gt;&lt;font style=&quot;font-size: 8px;&quot;&gt;Oggetti&lt;/font&gt;&lt;/div&gt;" style="text;html=1;align=center;verticalAlign=middle;whiteSpace=wrap;rounded=1;strokeColor=none;" parent="1" vertex="1">
          <mxGeometry x="289.44000000000005" y="83.81" width="40" height="18" as="geometry" />
        </mxCell>
        <mxCell id="8b9FtcVvKpMjhSRr-vLO-150" style="edgeStyle=orthogonalEdgeStyle;rounded=0;orthogonalLoop=1;jettySize=auto;html=1;exitX=0.25;exitY=0;exitDx=0;exitDy=0;entryX=0.842;entryY=1.009;entryDx=0;entryDy=0;entryPerimeter=0;endArrow=oval;endFill=1;" parent="1" edge="1">
          <mxGeometry relative="1" as="geometry">
            <mxPoint x="567.74" y="96.81000000000002" as="sourcePoint" />
            <mxPoint x="571.74" y="83.81000000000002" as="targetPoint" />
          </mxGeometry>
        </mxCell>
        <mxCell id="8b9FtcVvKpMjhSRr-vLO-151" style="edgeStyle=orthogonalEdgeStyle;rounded=0;orthogonalLoop=1;jettySize=auto;html=1;exitX=1;exitY=0.5;exitDx=0;exitDy=0;endArrow=oval;endFill=0;" parent="1" edge="1">
          <mxGeometry relative="1" as="geometry">
            <mxPoint x="651.3199999999999" y="111.28000000000003" as="sourcePoint" />
            <mxPoint x="674.44" y="111.28000000000003" as="targetPoint" />
          </mxGeometry>
        </mxCell>
        <mxCell id="8b9FtcVvKpMjhSRr-vLO-170" value="&lt;span style=&quot;font-size: 8px;&quot;&gt;(1,N)&lt;/span&gt;" style="text;html=1;align=center;verticalAlign=middle;whiteSpace=wrap;rounded=1;strokeColor=none;glass=0;" parent="1" vertex="1">
          <mxGeometry x="352.99000000000007" y="101.00000000000003" width="22.5" height="6.75" as="geometry" />
        </mxCell>
        <mxCell id="8b9FtcVvKpMjhSRr-vLO-177" value="&lt;font style=&quot;font-size: 8px;&quot;&gt;(1,1)&lt;/font&gt;" style="text;html=1;align=center;verticalAlign=middle;whiteSpace=wrap;rounded=1;strokeColor=none;glass=0;" parent="1" vertex="1">
          <mxGeometry x="450.69" y="100.99999999999994" width="22.5" height="6.75" as="geometry" />
        </mxCell>
        <mxCell id="8b9FtcVvKpMjhSRr-vLO-185" value="" style="endArrow=none;html=1;rounded=0;entryX=1;entryY=0.5;entryDx=0;entryDy=0;exitX=0;exitY=0.5;exitDx=0;exitDy=0;" parent="1" edge="1">
          <mxGeometry width="50" height="50" relative="1" as="geometry">
            <mxPoint x="553.19" y="117.75" as="sourcePoint" />
            <mxPoint x="285" y="117.75" as="targetPoint" />
          </mxGeometry>
        </mxCell>
        <mxCell id="8b9FtcVvKpMjhSRr-vLO-188" value="Contenimento" style="shape=rhombus;perimeter=rhombusPerimeter;whiteSpace=wrap;html=1;align=center;" parent="1" vertex="1">
          <mxGeometry x="369.44000000000005" y="92.13" width="92.5" height="51" as="geometry" />
        </mxCell>
        <mxCell id="8b9FtcVvKpMjhSRr-vLO-87" value="Oggetto" style="whiteSpace=wrap;html=1;align=center;" parent="1" vertex="1">
          <mxGeometry x="553" y="96.93548638132295" width="100" height="40.73929961089494" as="geometry" />
        </mxCell>
        <mxCell id="8b9FtcVvKpMjhSRr-vLO-191" style="edgeStyle=orthogonalEdgeStyle;rounded=0;orthogonalLoop=1;jettySize=auto;html=1;exitX=0.25;exitY=0;exitDx=0;exitDy=0;entryX=0.842;entryY=1.009;entryDx=0;entryDy=0;entryPerimeter=0;endArrow=oval;endFill=0;" parent="1" edge="1">
          <mxGeometry relative="1" as="geometry">
            <mxPoint x="625.26" y="96.94000000000001" as="sourcePoint" />
            <mxPoint x="629.26" y="83.94000000000001" as="targetPoint" />
          </mxGeometry>
        </mxCell>
      </root>
    </mxGraphModel>
  </diagram>
</mxfile>
